<svg width="98" height="36" viewBox="0 0 98 36" fill="none" xmlns="http://www.w3.org/2000/svg">
<g clip-path="url(#clip0_3616_8184)">
<g clip-path="url(#clip1_3616_8184)">
<path d="M54.2947 11.9495L53.6308 19.4733C53.4833 20.4322 53.3358 20.9485 52.967 21.4649C52.6719 21.8337 52.1556 22.055 51.5655 22.055H51.1229V24.4891H51.7868C52.7457 24.4891 53.5571 24.3416 54.2209 23.9728C54.8848 23.6777 55.4011 23.1614 55.6962 22.4238C56.065 21.7599 56.2863 20.801 56.3601 19.6946L56.8026 14.6787H59.8269V24.4153H62.7773V12.0233H54.2947V11.9495Z" fill="#222222"/>
<path d="M65.9491 11.9495V24.3416H67.8669L74.8006 16.5966V24.3416H77.6773V11.9495H75.8332L68.8258 19.7683V11.9495H65.9491Z" fill="#222222"/>
<path d="M96.7817 18.1456C96.7817 13.8674 93.9049 11.9496 89.7743 11.5807V8.85156H86.9713V11.5807C82.8406 11.9496 79.9639 13.8674 79.9639 18.1456C79.9639 22.4238 82.8406 24.3416 86.9713 24.7104V28.0297H89.7743V24.7104C93.8312 24.3416 96.7817 22.4238 96.7817 18.1456ZM82.6931 18.1456C82.6931 15.6377 84.2421 14.4575 87.0451 14.1624V22.2025C84.2421 21.9075 82.6931 20.6535 82.6931 18.1456ZM89.6267 22.2025V14.1624C92.4297 14.4575 93.9787 15.6377 93.9787 18.1456C93.9787 20.6535 92.4297 21.9075 89.6267 22.2025Z" fill="#222222"/>
<path d="M46.6234 11.802V13.1297C45.4433 12.1708 44.1893 11.6545 42.5665 11.6545C38.8047 11.6545 36.0017 14.3837 36.0017 18.2193C36.0017 21.9812 38.6571 24.7841 42.5665 24.7841C44.1155 24.7841 45.4433 24.2678 46.6234 23.2351V24.4891H49.5002V11.8758H46.6234V11.802ZM42.7878 22.1287C40.3537 22.1287 38.8047 20.3584 38.8047 18.1455C38.8047 15.9327 40.3537 14.1624 42.7878 14.1624C45.1482 14.1624 46.6972 15.9327 46.6972 18.1455C46.771 20.3584 45.1482 22.1287 42.7878 22.1287Z" fill="#222222"/>
</g>
<g clip-path="url(#clip2_3616_8184)">
<path d="M20.1429 9.58907H15.3484L9.07858 24.8578H13.1355L17.7825 13.0559L22.3558 24.8578H26.4127L20.1429 9.58907Z" fill="#00AF66"/>
<path d="M28.1829 28.6935C27.0027 29.5786 25.675 30.2425 24.1998 30.8326C16.5285 33.8568 7.97212 30.685 5.02163 23.4563C2.07115 16.2277 5.75925 7.74502 13.4305 4.72077C14.9795 4.13067 16.5285 3.76186 18.0775 3.61434L16.6023 0C14.9057 0.147524 13.2092 0.590083 11.5127 1.25394C2.07114 5.01581 -2.42835 15.7113 1.40728 24.9316C5.16915 34.1518 15.8647 38.3563 25.2324 34.6682C26.7815 34.0043 28.3305 33.2667 29.5844 32.3816L28.1829 28.6935Z" fill="#00AF66"/>
</g>
</g>
<defs>
<clipPath id="clip0_3616_8184">
<rect width="98" height="36" fill="white"/>
</clipPath>
<clipPath id="clip1_3616_8184">
<rect width="62" height="20" fill="white" transform="translate(36 7.78857)"/>
</clipPath>
<clipPath id="clip2_3616_8184">
<rect width="30" height="36" fill="white"/>
</clipPath>
</defs>
</svg>
