<svg width="98" height="36" viewBox="0 0 98 36" fill="none" xmlns="http://www.w3.org/2000/svg">
<g clip-path="url(#clip0_10335_1278)">
<g clip-path="url(#clip1_10335_1278)">
<path d="M54.2947 11.9494L53.6308 19.4731C53.4833 20.432 53.3358 20.9483 52.967 21.4647C52.6719 21.8335 52.1556 22.0548 51.5655 22.0548H51.1229V24.4889H51.7868C52.7457 24.4889 53.5571 24.3414 54.2209 23.9726C54.8848 23.6775 55.4011 23.1612 55.6962 22.4236C56.065 21.7597 56.2863 20.8008 56.3601 19.6944L56.8026 14.6786H59.8269V24.4152H62.7773V12.0231H54.2947V11.9494Z" fill="white"/>
<path d="M65.9491 11.9494V24.3414H67.8669L74.8006 16.5964V24.3414H77.6773V11.9494H75.8332L68.8258 19.7681V11.9494H65.9491Z" fill="white"/>
<path d="M96.7817 18.1454C96.7817 13.8672 93.9049 11.9494 89.7743 11.5806V8.85138H86.9713V11.5806C82.8406 11.9494 79.9639 13.8672 79.9639 18.1454C79.9639 22.4236 82.8406 24.3414 86.9713 24.7102V28.0295H89.7743V24.7102C93.8312 24.3414 96.7817 22.4236 96.7817 18.1454ZM82.6931 18.1454C82.6931 15.6375 84.2421 14.4573 87.0451 14.1622V22.2023C84.2421 21.9073 82.6931 20.6533 82.6931 18.1454ZM89.6267 22.2023V14.1622C92.4297 14.4573 93.9787 15.6375 93.9787 18.1454C93.9787 20.6533 92.4297 21.9073 89.6267 22.2023Z" fill="white"/>
<path d="M46.6234 11.8018V13.1295C45.4433 12.1706 44.1893 11.6543 42.5665 11.6543C38.8047 11.6543 36.0017 14.3835 36.0017 18.2191C36.0017 21.981 38.6571 24.784 42.5665 24.784C44.1155 24.784 45.4433 24.2676 46.6234 23.2349V24.4889H49.5002V11.8756H46.6234V11.8018ZM42.7878 22.1285C40.3537 22.1285 38.8047 20.3582 38.8047 18.1454C38.8047 15.9325 40.3537 14.1622 42.7878 14.1622C45.1482 14.1622 46.6972 15.9325 46.6972 18.1454C46.771 20.3582 45.1482 22.1285 42.7878 22.1285Z" fill="white"/>
</g>
<g clip-path="url(#clip2_10335_1278)">
<path d="M20.143 9.58907H15.3485L9.0787 24.8578H13.1356L17.7826 13.0559L22.3559 24.8578H26.4128L20.143 9.58907Z" fill="#00AF66"/>
<path d="M28.1831 28.6935C27.0029 29.5786 25.6751 30.2425 24.1999 30.8326C16.5286 33.8568 7.97224 30.685 5.02175 23.4563C2.07127 16.2277 5.75937 7.74502 13.4306 4.72077C14.9796 4.13067 16.5286 3.76186 18.0776 3.61434L16.6024 0C14.9059 0.147524 13.2093 0.590083 11.5128 1.25394C2.07126 5.01581 -2.42823 15.7113 1.4074 24.9316C5.16927 34.1518 15.8648 38.3563 25.2326 34.6682C26.7816 34.0043 28.3306 33.2667 29.5845 32.3816L28.1831 28.6935Z" fill="#00AF66"/>
</g>
</g>
<defs>
<clipPath id="clip0_10335_1278">
<rect width="98" height="36" fill="white"/>
</clipPath>
<clipPath id="clip1_10335_1278">
<rect width="62" height="20" fill="white" transform="translate(36 7.78839)"/>
</clipPath>
<clipPath id="clip2_10335_1278">
<rect width="30" height="36" fill="white"/>
</clipPath>
</defs>
</svg>
