<svg width="96" height="96" viewBox="0 0 96 96" fill="none" xmlns="http://www.w3.org/2000/svg">
<path d="M12.1367 14.8979C12.1367 13.4916 13.2767 12.3516 14.683 12.3516H24.8683C26.2746 12.3516 27.4146 13.4916 27.4146 14.8979V65.8242H73.2483C75.3578 65.8242 77.0678 67.5343 77.0678 69.6437C77.0678 71.7531 75.3578 73.4632 73.2483 73.4632H26.1415C22.6257 73.4632 19.7757 70.6131 19.7757 67.0974V19.9905H14.683C13.2767 19.9905 12.1367 18.8505 12.1367 17.4442V14.8979Z" fill="#E4EAEE"/>
<path d="M68.1547 19.1351C69.9126 16.0904 73.8058 15.0472 76.8505 16.8051L79.0557 18.0782C82.1004 19.8361 83.1436 23.7294 81.3858 26.7741L63.5615 57.6465C61.8037 60.6912 57.9104 61.7344 54.8657 59.9766L52.6605 58.7034C49.6158 56.9456 48.5726 53.0523 50.3305 50.0076L68.1547 19.1351Z" fill="#48587D"/>
<path d="M47.7852 18.7174C47.7852 15.2016 50.6352 12.3516 54.1509 12.3516H56.6973C60.213 12.3516 63.0631 15.2016 63.0631 18.7174V54.3658C63.0631 57.8815 60.213 60.7316 56.6973 60.7316H54.1509C50.6352 60.7316 47.7852 57.8815 47.7852 54.3658V18.7174Z" fill="#00AF66"/>
<path fill-rule="evenodd" clip-rule="evenodd" d="M19.7734 19.9902H80.0367C82.4499 19.9902 84.2583 22.2003 83.7806 24.5657L76.5824 60.2141C76.2225 61.9962 74.6565 63.2776 72.8385 63.2776H19.7734V19.9902ZM29.9587 30.1755C29.9587 28.7692 31.0987 27.6292 32.505 27.6292H35.0513C36.4576 27.6292 37.5977 28.7692 37.5977 30.1755V32.7218C37.5977 34.1281 36.4576 35.2681 35.0513 35.2681H32.505C31.0987 35.2681 29.9587 34.1281 29.9587 32.7218V30.1755ZM32.505 47.9997C31.0987 47.9997 29.9587 49.1397 29.9587 50.546V53.0924C29.9587 54.4986 31.0987 55.6387 32.505 55.6387H35.0513C36.4576 55.6387 37.5977 54.4986 37.5977 53.0924V50.546C37.5977 49.1397 36.4576 47.9997 35.0513 47.9997H32.505ZM36.3245 40.3608C36.3245 38.9545 37.4645 37.8145 38.8708 37.8145H41.4171C42.8234 37.8145 43.9634 38.9545 43.9634 40.3608V42.9071C43.9634 44.3134 42.8234 45.4534 41.4171 45.4534H38.8708C37.4645 45.4534 36.3245 44.3134 36.3245 42.9071V40.3608ZM51.6024 37.8145C50.1961 37.8145 49.0561 38.9545 49.0561 40.3608V42.9071C49.0561 44.3134 50.1961 45.4534 51.6024 45.4534H54.1487C55.555 45.4534 56.695 44.3134 56.695 42.9071V40.3608C56.695 38.9545 55.555 37.8145 54.1487 37.8145H51.6024ZM61.7877 40.3608C61.7877 38.9545 62.9277 37.8145 64.334 37.8145H66.8803C68.2866 37.8145 69.4266 38.9545 69.4266 40.3608V42.9071C69.4266 44.3134 68.2866 45.4534 66.8803 45.4534H64.334C62.9277 45.4534 61.7877 44.3134 61.7877 42.9071V40.3608ZM45.2366 27.6292C43.8303 27.6292 42.6903 28.7692 42.6903 30.1755V32.7218C42.6903 34.1281 43.8303 35.2681 45.2366 35.2681H47.7829C49.1892 35.2681 50.3292 34.1281 50.3292 32.7218V30.1755C50.3292 28.7692 49.1892 27.6292 47.7829 27.6292H45.2366ZM42.6903 50.546C42.6903 49.1397 43.8303 47.9997 45.2366 47.9997H47.7829C49.1892 47.9997 50.3292 49.1397 50.3292 50.546V53.0924C50.3292 54.4986 49.1892 55.6387 47.7829 55.6387H45.2366C43.8303 55.6387 42.6903 54.4986 42.6903 53.0924V50.546ZM57.9682 27.6292C56.5619 27.6292 55.4219 28.7692 55.4219 30.1755V32.7218C55.4219 34.1281 56.5619 35.2681 57.9682 35.2681H60.5145C61.9208 35.2681 63.0608 34.1281 63.0608 32.7218V30.1755C63.0608 28.7692 61.9208 27.6292 60.5145 27.6292H57.9682ZM55.4219 50.546C55.4219 49.1397 56.5619 47.9997 57.9682 47.9997H60.5145C61.9208 47.9997 63.0608 49.1397 63.0608 50.546V53.0924C63.0608 54.4986 61.9208 55.6387 60.5145 55.6387H57.9682C56.5619 55.6387 55.4219 54.4986 55.4219 53.0924V50.546ZM70.6998 27.6292C69.2935 27.6292 68.1535 28.7692 68.1535 30.1755V32.7218C68.1535 34.1281 69.2935 35.2681 70.6998 35.2681H73.2461C74.6524 35.2681 75.7924 34.1281 75.7924 32.7218V30.1755C75.7924 28.7692 74.6524 27.6292 73.2461 27.6292H70.6998Z" fill="#E4EAEE"/>
<path d="M70.6998 76.01C70.6998 80.2289 67.2797 83.649 63.0608 83.649C58.8419 83.649 55.4219 80.2289 55.4219 76.01C55.4219 71.7912 58.8419 68.3711 63.0608 68.3711C67.2797 68.3711 70.6998 71.7912 70.6998 76.01Z" fill="#48587D"/>
<path d="M35.0513 76.01C35.0513 80.2289 31.6313 83.649 27.4124 83.649C23.1935 83.649 19.7734 80.2289 19.7734 76.01C19.7734 71.7912 23.1935 68.3711 27.4124 68.3711C31.6313 68.3711 35.0513 71.7912 35.0513 76.01Z" fill="#48587D"/>
</svg>
