<svg width="121" height="40" viewBox="0 0 121 40" fill="none" xmlns="http://www.w3.org/2000/svg">
<rect x="0.496094" width="120.001" height="40" rx="8" fill="#111111"/>
<path d="M27.2772 19.5861C27.2514 16.7212 29.623 15.3274 29.7314 15.2625C28.3883 13.3042 26.3065 13.0367 25.575 13.0153C23.8265 12.8313 22.1305 14.0616 21.2398 14.0616C20.3314 14.0616 18.9598 13.0331 17.4815 13.0633C15.5793 13.0927 13.7997 14.194 12.8237 15.9043C10.8095 19.3914 12.3117 24.5159 14.2415 27.3346C15.2069 28.715 16.3349 30.2564 17.8113 30.2022C19.2558 30.1426 19.7954 29.2813 21.5385 29.2813C23.2656 29.2813 23.7723 30.2022 25.2781 30.1675C26.8283 30.1426 27.8043 28.7808 28.7359 27.3879C29.8514 25.8057 30.2995 24.2475 30.3172 24.1675C30.2808 24.155 27.3065 23.0199 27.2772 19.5861Z" fill="white"/>
<path d="M24.4317 11.1606C25.2085 10.1892 25.74 8.86754 25.5925 7.52637C24.4682 7.57614 23.0621 8.30405 22.2524 9.25415C21.5361 10.0914 20.8961 11.4637 21.0615 12.7542C22.3244 12.8484 23.6211 12.1169 24.4317 11.1606Z" fill="white"/>
<path d="M48.1821 25.8548H46.1634L45.0576 22.3801H41.214L40.1607 25.8548H38.1953L42.0034 14.0254H44.3554L48.1821 25.8548ZM44.7243 20.9223L43.7243 17.8334C43.6185 17.5179 43.4203 16.7748 43.1278 15.605H43.0922C42.9758 16.1081 42.7882 16.8512 42.5305 17.8334L41.5482 20.9223H44.7243Z" fill="white"/>
<path d="M57.976 21.4851C57.976 22.9357 57.584 24.0824 56.8 24.9242C56.0978 25.6735 55.2258 26.0478 54.1849 26.0478C53.0613 26.0478 52.2542 25.6442 51.7626 24.8371H51.7271V29.3305H49.8319V20.133C49.8319 19.221 49.8079 18.285 49.7617 17.325H51.4284L51.5342 18.677H51.5697C52.2017 17.6584 53.1609 17.1499 54.448 17.1499C55.4542 17.1499 56.2942 17.5472 56.9662 18.3428C57.64 19.1393 57.976 20.1864 57.976 21.4851ZM56.0453 21.5544C56.0453 20.7242 55.8587 20.0397 55.4836 19.501C55.0738 18.9393 54.5235 18.6584 53.8338 18.6584C53.3662 18.6584 52.9413 18.8148 52.5617 19.1233C52.1813 19.4344 51.9324 19.8406 51.816 20.3437C51.7573 20.5784 51.728 20.7704 51.728 20.9215V22.3437C51.728 22.9642 51.9182 23.4877 52.2986 23.9153C52.6791 24.3429 53.1733 24.5562 53.7813 24.5562C54.4951 24.5562 55.0507 24.2806 55.448 23.7313C55.8462 23.1811 56.0453 22.4557 56.0453 21.5544Z" fill="white"/>
<path d="M67.7857 21.4851C67.7857 22.9357 67.3937 24.0824 66.6088 24.9242C65.9074 25.6735 65.0354 26.0478 63.9945 26.0478C62.871 26.0478 62.0638 25.6442 61.5732 24.8371H61.5376V29.3305H59.6425V20.133C59.6425 19.221 59.6185 18.285 59.5723 17.325H61.2389L61.3447 18.677H61.3803C62.0114 17.6584 62.9705 17.1499 64.2585 17.1499C65.2639 17.1499 66.1039 17.5472 66.7777 18.3428C67.4488 19.1393 67.7857 20.1864 67.7857 21.4851ZM65.855 21.5544C65.855 20.7242 65.6674 20.0397 65.2923 19.501C64.8825 18.9393 64.3341 18.6584 63.6434 18.6584C63.175 18.6584 62.751 18.8148 62.3705 19.1233C61.9901 19.4344 61.7421 19.8406 61.6256 20.3437C61.5678 20.5784 61.5376 20.7704 61.5376 20.9215V22.3437C61.5376 22.9642 61.7278 23.4877 62.1065 23.9153C62.487 24.342 62.9812 24.5562 63.591 24.5562C64.3048 24.5562 64.8603 24.2806 65.2577 23.7313C65.6559 23.1811 65.855 22.4557 65.855 21.5544Z" fill="white"/>
<path d="M78.7548 22.5375C78.7548 23.5437 78.4054 24.3624 77.7041 24.9944C76.9334 25.6851 75.8605 26.0299 74.4818 26.0299C73.2089 26.0299 72.1885 25.7846 71.416 25.2931L71.8551 23.7135C72.6871 24.2166 73.6 24.469 74.5947 24.469C75.3085 24.469 75.8641 24.3073 76.2632 23.9855C76.6605 23.6637 76.8587 23.2317 76.8587 22.693C76.8587 22.213 76.6952 21.8086 76.3672 21.4806C76.041 21.1526 75.4961 20.8477 74.7352 20.5659C72.664 19.7934 71.6294 18.6619 71.6294 17.1739C71.6294 16.2014 71.992 15.4041 72.7183 14.7836C73.4418 14.1623 74.4072 13.8521 75.6143 13.8521C76.6907 13.8521 77.585 14.0396 78.2988 14.4138L77.825 15.9587C77.1583 15.5961 76.4045 15.4147 75.5609 15.4147C74.8943 15.4147 74.3734 15.5792 74 15.9063C73.6845 16.1987 73.5263 16.5552 73.5263 16.9774C73.5263 17.445 73.7067 17.8316 74.0694 18.1356C74.3849 18.4165 74.9583 18.7205 75.7903 19.0485C76.8081 19.4583 77.5556 19.9374 78.0365 20.4868C78.5156 21.0343 78.7548 21.7197 78.7548 22.5375Z" fill="white"/>
<path d="M85.0209 18.7473H82.932V22.8887C82.932 23.942 83.3 24.4682 84.0378 24.4682C84.3764 24.4682 84.6573 24.4389 84.8796 24.3802L84.932 25.8194C84.5587 25.9589 84.0671 26.0291 83.4582 26.0291C82.7098 26.0291 82.1249 25.8007 81.7026 25.3447C81.2822 24.8878 81.0706 24.1216 81.0706 23.0451V18.7455H79.8262V17.3233H81.0706V15.7615L82.932 15.1997V17.3233H85.0209V18.7473Z" fill="white"/>
<path d="M94.4465 21.5198C94.4465 22.8309 94.0714 23.9074 93.323 24.7492C92.5381 25.6159 91.4963 26.0479 90.1976 26.0479C88.946 26.0479 87.9496 25.6327 87.2065 24.8025C86.4634 23.9723 86.0918 22.9243 86.0918 21.6611C86.0918 20.3394 86.474 19.2567 87.2411 18.4149C88.0065 17.5722 89.0394 17.1509 90.3381 17.1509C91.5896 17.1509 92.5967 17.566 93.3568 18.3971C94.0839 19.2033 94.4465 20.2442 94.4465 21.5198ZM92.4803 21.5811C92.4803 20.7945 92.3123 20.1198 91.9719 19.5571C91.5745 18.8762 91.0065 18.5367 90.2705 18.5367C89.5087 18.5367 88.93 18.8771 88.5327 19.5571C88.1923 20.1207 88.0243 20.806 88.0243 21.6167C88.0243 22.4034 88.1923 23.078 88.5327 23.6398C88.9425 24.3207 89.5149 24.6603 90.2536 24.6603C90.9772 24.6603 91.5452 24.3136 91.955 23.6221C92.3043 23.0487 92.4803 22.3669 92.4803 21.5811Z" fill="white"/>
<path d="M100.607 18.9917C100.419 18.957 100.219 18.9393 100.009 18.9393C99.3426 18.9393 98.827 19.1908 98.4643 19.6948C98.1488 20.1393 97.9905 20.701 97.9905 21.3793V25.8549H96.0963L96.1141 20.0113C96.1141 19.0281 96.0901 18.133 96.043 17.3259H97.6937L97.763 18.9579H97.8154C98.0154 18.397 98.331 17.9455 98.763 17.6068C99.1852 17.3019 99.6412 17.1499 100.133 17.1499C100.308 17.1499 100.466 17.1623 100.607 17.1846V18.9917Z" fill="white"/>
<path d="M109.081 21.1863C109.081 21.5258 109.058 21.8121 109.011 22.0458H103.326C103.348 22.8885 103.623 23.533 104.151 23.9774C104.63 24.3747 105.249 24.5739 106.01 24.5739C106.852 24.5739 107.62 24.4396 108.311 24.1703L108.608 25.4859C107.801 25.8379 106.848 26.013 105.748 26.013C104.425 26.013 103.387 25.6236 102.632 24.8459C101.878 24.0681 101.5 23.0236 101.5 21.7134C101.5 20.4272 101.851 19.356 102.554 18.5018C103.29 17.5898 104.285 17.1338 105.536 17.1338C106.766 17.1338 107.697 17.5898 108.329 18.5018C108.829 19.2263 109.081 20.1223 109.081 21.1863ZM107.273 20.6947C107.286 20.1329 107.162 19.6476 106.905 19.2378C106.577 18.7107 106.073 18.4476 105.395 18.4476C104.776 18.4476 104.272 18.7045 103.887 19.22C103.571 19.6298 103.384 20.1214 103.326 20.6938H107.273V20.6947Z" fill="white"/>
</svg>
