<svg width="97" height="96" viewBox="0 0 97 96" fill="none" xmlns="http://www.w3.org/2000/svg">
<path fill-rule="evenodd" clip-rule="evenodd" d="M12.1133 27.0071C12.1133 22.6593 15.6378 19.1348 19.9856 19.1348H63.2835C64.7327 19.1348 65.9076 20.3096 65.9076 21.7589V27.0071H68.5317V21.7589C68.5317 20.3096 69.7065 19.1348 71.1558 19.1348H77.7161C82.0639 19.1348 85.5884 22.6593 85.5884 27.0071V40.2365C81.8652 40.8611 79.0281 44.0993 79.0281 48C79.0281 51.9007 81.8652 55.1388 85.5884 55.7635V68.9929C85.5884 73.3407 82.0639 76.8652 77.7161 76.8652H71.1558C69.7065 76.8652 68.5317 75.6904 68.5317 74.2411V68.9929H65.9076V74.2411C65.9076 75.6904 64.7327 76.8652 63.2835 76.8652H19.9856C15.6378 76.8652 12.1133 73.3407 12.1133 68.9929V27.0071ZM65.9076 55.8723H68.5317V66.3688H65.9076V55.8723ZM68.5317 42.7518H65.9076V53.2482H68.5317V42.7518ZM65.9076 29.6312H68.5317V40.1277H65.9076V29.6312Z" fill="#ECF0F3"/>
<path d="M58.0346 32.2559C59.4839 32.2559 60.6587 33.4307 60.6587 34.88C60.6587 36.3292 59.4839 37.5041 58.0346 37.5041H47.5382C46.0889 37.5041 44.9141 36.3292 44.9141 34.88C44.9141 33.4307 46.0889 32.2559 47.5382 32.2559H58.0346Z" fill="#00AF66"/>
<path d="M35.3077 27.4203C35.8695 27.9824 35.8695 28.8874 35.3077 29.44L32.1342 32.6154C31.8044 32.9454 31.6677 33.4221 31.7725 33.8768L33.4994 41.3671C33.576 41.6994 33.4768 42.0478 33.2366 42.2898C32.7632 42.7669 31.9626 42.6456 31.6516 42.0498L29.4394 37.8109C29.0163 37.0003 27.9281 36.8335 27.2817 37.4802L25.3526 39.4105C25.0505 39.7128 24.9088 40.14 24.9704 40.5629L25.1582 41.8518C25.1941 42.0984 25.1109 42.3475 24.9339 42.5229C24.564 42.8896 23.9461 42.8011 23.694 42.3452L22.7088 40.5641C22.5859 40.342 22.4031 40.1589 22.1812 40.0358L20.3915 39.0421C19.9347 38.7885 19.8449 38.1696 20.2108 37.7966C20.388 37.616 20.6409 37.5311 20.8911 37.5681L22.199 37.7618C22.6231 37.8246 23.0518 37.6828 23.3548 37.3796L25.2591 35.4742C25.9039 34.829 25.7393 33.7438 24.9323 33.3189L20.6834 31.0816C20.0886 30.7684 19.9687 29.9678 20.4456 29.494C20.6883 29.2528 21.0378 29.1532 21.3712 29.2301L28.8542 30.9574C29.3091 31.0624 29.786 30.9255 30.1161 30.5953L33.2892 27.4203C33.8224 26.8677 34.7746 26.8677 35.3077 27.4203Z" fill="#00AF66"/>
<rect x="19.9844" y="65.623" width="22.7754" height="2.81" rx="1.405" fill="#48587D"/>
<rect x="19.9844" y="58.0449" width="15.7441" height="2.81" rx="1.405" fill="#48587D"/>
<rect x="47.7344" y="65.623" width="12.9238" height="2.81" rx="1.405" fill="#48587D"/>
</svg>
