<svg width="96" height="96" viewBox="0 0 96 96" fill="none" xmlns="http://www.w3.org/2000/svg">
<path d="M67.7187 80.8289L63.6016 74.9473H80.6213V79.2022C80.6213 80.7688 79.3513 82.0388 77.7847 82.0388H70.0425C69.1169 82.0388 68.2495 81.5872 67.7187 80.8289Z" fill="#48587D"/>
<path d="M26.8635 80.8289L30.9806 74.9473H13.9609V79.2022C13.9609 80.7688 15.2309 82.0388 16.7976 82.0388H24.5397C25.4653 82.0388 26.3327 81.5872 26.8635 80.8289Z" fill="#48587D"/>
<rect x="9.35547" y="16.0547" width="77.2903" height="58.2168" rx="8.05531" fill="#E4EAEE" stroke="#48587D" stroke-width="6"/>
<path d="M41.5914 45.1629C41.5914 51.4294 36.5114 56.5094 30.2449 56.5094C23.9784 56.5094 18.8984 51.4294 18.8984 45.1629C18.8984 38.8964 23.9784 33.8164 30.2449 33.8164C36.5114 33.8164 41.5914 38.8964 41.5914 45.1629Z" fill="#48587D"/>
<path d="M24.6498 46.2821C24.0321 46.2821 23.5312 45.7813 23.5312 45.1635C23.5312 44.5457 24.0321 44.0449 24.6498 44.0449L25.5823 44.0449C26.4786 44.0449 27.236 43.4245 27.8699 42.7907C28.5037 42.1568 29.1241 41.3994 29.1241 40.5031L29.1241 39.5706C29.1241 38.9529 29.625 38.452 30.2427 38.452C30.8605 38.452 31.3613 38.9529 31.3613 39.5706L31.3613 40.5031C31.3613 41.3994 31.9818 42.1568 32.6156 42.7907C33.2494 43.4245 34.0068 44.0449 34.9032 44.0449L35.8356 44.0449C36.4534 44.0449 36.9542 44.5457 36.9542 45.1635C36.9542 45.7813 36.4534 46.2821 35.8356 46.2821L34.9032 46.2821C34.0068 46.2821 33.2494 46.9026 32.6156 47.5364C31.9818 48.1702 31.3613 48.9276 31.3613 49.824L31.3613 50.7564C31.3613 51.3742 30.8605 51.875 30.2427 51.875C29.625 51.875 29.1241 51.3742 29.1241 50.7564L29.1241 49.824C29.1241 48.9276 28.5037 48.1702 27.8699 47.5364C27.236 46.9026 26.4786 46.2821 25.5823 46.2821L24.6498 46.2821Z" fill="#E4EAEE"/>
<path d="M48 33.1858C48 32.2407 48.7661 31.4746 49.7112 31.4746H53.1335C54.0785 31.4746 54.8447 32.2407 54.8447 33.1858V36.6081C54.8447 37.5532 54.0785 38.3193 53.1335 38.3193H49.7112C48.7661 38.3193 48 37.5532 48 36.6081V33.1858Z" fill="#00AF66"/>
<path d="M58.267 33.1858C58.267 32.2407 59.0331 31.4746 59.9782 31.4746H63.4005C64.3455 31.4746 65.1117 32.2407 65.1117 33.1858V36.6081C65.1117 37.5532 64.3455 38.3193 63.4005 38.3193H59.9782C59.0331 38.3193 58.267 37.5532 58.267 36.6081V33.1858Z" fill="#00AF66"/>
<path d="M70.2452 31.4746C69.3001 31.4746 68.534 32.2407 68.534 33.1858V36.6081C68.534 37.5532 69.3001 38.3193 70.2452 38.3193H73.6675C74.6125 38.3193 75.3786 37.5532 75.3786 36.6081V33.1858C75.3786 32.2407 74.6125 31.4746 73.6675 31.4746H70.2452Z" fill="#00AF66"/>
<path d="M48 43.4534C48 42.5083 48.7661 41.7422 49.7112 41.7422H53.1335C54.0785 41.7422 54.8447 42.5083 54.8447 43.4534V46.8757C54.8447 47.8207 54.0785 48.5868 53.1335 48.5868H49.7112C48.7661 48.5868 48 47.8207 48 46.8757V43.4534Z" fill="#00AF66"/>
<path d="M58.267 43.4534C58.267 42.5083 59.0331 41.7422 59.9782 41.7422H63.4005C64.3455 41.7422 65.1117 42.5083 65.1117 43.4534V46.8757C65.1117 47.8207 64.3455 48.5868 63.4005 48.5868H59.9782C59.0331 48.5868 58.267 47.8207 58.267 46.8757V43.4534Z" fill="#00AF66"/>
<path d="M70.2452 41.7422C69.3001 41.7422 68.534 42.5083 68.534 43.4534V46.8757C68.534 47.8207 69.3001 48.5868 70.2452 48.5868H73.6675C74.6125 48.5868 75.3786 47.8207 75.3786 46.8757V43.4534C75.3786 42.5083 74.6125 41.7422 73.6675 41.7422H70.2452Z" fill="#00AF66"/>
<path d="M48 53.7209C48 52.7759 48.7661 52.0098 49.7112 52.0098H53.1335C54.0785 52.0098 54.8447 52.7759 54.8447 53.7209V57.1433C54.8447 58.0883 54.0785 58.8544 53.1335 58.8544H49.7112C48.7661 58.8544 48 58.0883 48 57.1433V53.7209Z" fill="#00AF66"/>
<path d="M58.267 53.7209C58.267 52.7759 59.0331 52.0098 59.9782 52.0098H63.4005C64.3455 52.0098 65.1117 52.7759 65.1117 53.7209V57.1433C65.1117 58.0883 64.3455 58.8544 63.4005 58.8544H59.9782C59.0331 58.8544 58.267 58.0883 58.267 57.1433V53.7209Z" fill="#00AF66"/>
<path d="M70.2452 52.0098C69.3001 52.0098 68.534 52.7759 68.534 53.7209V57.1433C68.534 58.0883 69.3001 58.8544 70.2452 58.8544H73.6675C74.6125 58.8544 75.3786 58.0883 75.3786 57.1433V53.7209C75.3786 52.7759 74.6125 52.0098 73.6675 52.0098H70.2452Z" fill="#00AF66"/>
</svg>
