<svg width="136" height="40" viewBox="0 0 136 40" fill="none" xmlns="http://www.w3.org/2000/svg">
<rect x="0.498047" width="136" height="40" rx="6" fill="#111111"/>
<path d="M70.4625 16.6716C68.3324 16.6716 66.646 18.2692 66.646 20.4882C66.646 22.6183 68.3324 24.3047 70.4625 24.3047C72.5927 24.3047 74.2791 22.7071 74.2791 20.4882C74.2791 18.1805 72.5927 16.6716 70.4625 16.6716ZM70.4625 22.7071C69.3087 22.7071 68.3324 21.7308 68.3324 20.3994C68.3324 19.068 69.3087 18.0917 70.4625 18.0917C71.6164 18.0917 72.5927 18.9793 72.5927 20.3994C72.5927 21.7308 71.6164 22.7071 70.4625 22.7071ZM62.2081 16.6716C60.0779 16.6716 58.3915 18.2692 58.3915 20.4882C58.3915 22.6183 60.0779 24.3047 62.2081 24.3047C64.3383 24.3047 66.0247 22.7071 66.0247 20.4882C66.0247 18.1805 64.3383 16.6716 62.2081 16.6716ZM62.2081 22.7071C61.0543 22.7071 60.0779 21.7308 60.0779 20.3994C60.0779 19.068 61.0543 18.0917 62.2081 18.0917C63.362 18.0917 64.3383 18.9793 64.3383 20.3994C64.3383 21.7308 63.362 22.7071 62.2081 22.7071ZM52.356 17.8254V19.4231H56.1726C56.0838 20.3107 55.7288 21.0207 55.285 21.4645C54.7525 21.997 53.8649 22.6183 52.356 22.6183C49.9596 22.6183 48.1844 20.7544 48.1844 18.358C48.1844 15.9615 50.0483 14.0976 52.356 14.0976C53.5986 14.0976 54.575 14.6302 55.285 15.2515L56.4389 14.0976C55.4625 13.2101 54.2199 12.5 52.4448 12.5C49.2495 12.5 46.498 15.1627 46.498 18.358C46.498 21.5533 49.2495 24.216 52.4448 24.216C54.2199 24.216 55.4625 23.6834 56.5276 22.5296C57.5927 21.4645 57.9478 19.9556 57.9478 18.8018C57.9478 18.4467 57.9478 18.0917 57.859 17.8254H52.356ZM92.6519 19.068C92.2969 18.1805 91.4093 16.6716 89.4566 16.6716C87.504 16.6716 85.9063 18.1805 85.9063 20.4882C85.9063 22.6183 87.504 24.3047 89.6341 24.3047C91.3205 24.3047 92.3856 23.2396 92.7407 22.6183L91.4981 21.7308C91.0543 22.3521 90.5217 22.7959 89.6341 22.7959C88.7466 22.7959 88.214 22.4408 87.7702 21.642L92.8294 19.5118L92.6519 19.068ZM87.504 20.3107C87.504 18.8905 88.6578 18.0917 89.4566 18.0917C90.0779 18.0917 90.6992 18.4467 90.8767 18.8905L87.504 20.3107ZM83.3324 23.9497H85.0188V12.855H83.3324V23.9497ZM80.6696 17.4704C80.2259 17.0266 79.5158 16.5828 78.6282 16.5828C76.7643 16.5828 74.9892 18.2692 74.9892 20.3994C74.9892 22.5296 76.6756 24.1272 78.6282 24.1272C79.5158 24.1272 80.2259 23.6834 80.5809 23.2396H80.6696V23.7722C80.6696 25.1923 79.8708 25.9911 78.6282 25.9911C77.6519 25.9911 76.9418 25.2811 76.7643 24.6598L75.3442 25.2811C75.788 26.2574 76.8531 27.5 78.717 27.5C80.6697 27.5 82.2673 26.3462 82.2673 23.5947V16.8491H80.6696V17.4704ZM78.717 22.7071C77.5631 22.7071 76.5868 21.7308 76.5868 20.3994C76.5868 19.068 77.5631 18.0917 78.717 18.0917C79.8708 18.0917 80.7584 19.068 80.7584 20.3994C80.7584 21.7308 79.8708 22.7071 78.717 22.7071ZM100.374 12.855H96.3797V23.9497H98.0661V19.7781H100.374C102.238 19.7781 104.013 18.4467 104.013 16.3166C104.013 14.1864 102.238 12.855 100.374 12.855ZM100.463 18.1805H98.0661V14.3639H100.463C101.705 14.3639 102.415 15.429 102.415 16.2278C102.326 17.2041 101.616 18.1805 100.463 18.1805ZM110.67 16.5828C109.427 16.5828 108.184 17.1154 107.741 18.2692L109.25 18.8905C109.605 18.2692 110.137 18.0917 110.758 18.0917C111.646 18.0917 112.445 18.6243 112.534 19.5118V19.6006C112.267 19.4231 111.557 19.1568 110.847 19.1568C109.25 19.1568 107.652 20.0444 107.652 21.642C107.652 23.1509 108.983 24.1272 110.403 24.1272C111.557 24.1272 112.09 23.5947 112.534 23.0621H112.622V23.9497H114.22V19.6893C114.042 17.7367 112.534 16.5828 110.67 16.5828ZM110.492 22.7071C109.96 22.7071 109.161 22.4408 109.161 21.7308C109.161 20.8432 110.137 20.5769 110.936 20.5769C111.646 20.5769 112.001 20.7544 112.445 20.932C112.267 21.997 111.38 22.7071 110.492 22.7071ZM119.812 16.8491L117.948 21.642H117.859L115.906 16.8491H114.131L117.06 23.5947L115.374 27.3225H117.06L121.587 16.8491H119.812ZM104.9 23.9497H106.587V12.855H104.9V23.9497Z" fill="white"/>
<path d="M25.1977 19.4004L14.5977 30.7004C14.8977 31.9004 15.9977 32.8004 17.3977 32.8004C17.8977 32.8004 18.3977 32.7004 18.8977 32.4004L30.8977 25.5004L25.1977 19.4004Z" fill="#EA4335"/>
<path d="M35.998 17.5L30.798 14.5L24.998 19.7L30.798 25.5L35.898 22.5C36.798 22 37.398 21.1 37.398 20C37.498 18.9 36.898 18 35.998 17.5Z" fill="#FBBC04"/>
<path d="M14.598 9.30029C14.498 9.50029 14.498 9.80029 14.498 10.0003V30.0003C14.498 30.3003 14.498 30.5003 14.598 30.7003L25.598 19.7003L14.598 9.30029Z" fill="#4285F4"/>
<path d="M25.298 20.0002L30.798 14.5002L18.798 7.60019C18.398 7.30019 17.898 7.2002 17.298 7.2002C15.998 7.2002 14.798 8.10019 14.498 9.30019L25.298 20.0002Z" fill="#00AF66"/>
</svg>
