<svg width="97" height="96" viewBox="0 0 97 96" fill="none" xmlns="http://www.w3.org/2000/svg">
<rect x="11.1935" y="24.4083" width="73.9038" height="47.1853" rx="10.2876" fill="#ECF0F3" stroke="#48587D" stroke-width="4.47287"/>
<path d="M45.2102 56.2143C43.765 57.1185 42.1068 57.6252 40.403 57.6833C38.6993 57.7414 37.0104 57.3488 35.507 56.5452C34.0036 55.7416 32.7388 54.5555 31.8406 53.1066C30.9423 51.6578 30.4423 49.9975 30.3911 48.2936C30.3399 46.5896 30.7393 44.9023 31.5489 43.4022C32.3586 41.902 33.5498 40.6421 35.0023 39.7497C36.4548 38.8573 38.117 38.364 39.8212 38.3197C41.5253 38.2754 43.211 38.6816 44.7079 39.4973" stroke="#48587D" stroke-width="6.45749" stroke-linecap="round" stroke-linejoin="round"/>
<circle cx="62.6741" cy="48.0022" r="3.22875" stroke="#00AF66" stroke-width="6.45749"/>
</svg>
