<svg width="25" height="24" viewBox="0 0 25 24" fill="none" xmlns="http://www.w3.org/2000/svg">
<path fill-rule="evenodd" clip-rule="evenodd" d="M8.527 5.92983C9.65229 4.80454 11.1785 4.17236 12.7699 4.17236C14.3613 4.17236 15.8875 4.80454 17.0128 5.92983C18.1381 7.05512 18.7703 8.58134 18.7703 10.1727C18.7703 12.4932 17.2545 14.7773 15.5441 16.5826C14.7094 17.4637 13.8713 18.1857 13.2408 18.6878C13.0656 18.8273 12.9071 18.9493 12.7699 19.0525C12.6327 18.9493 12.4742 18.8273 12.299 18.6878C11.6685 18.1857 10.8304 17.4637 9.99567 16.5826C8.28536 14.7773 6.76953 12.4932 6.76953 10.1727C6.76953 8.58134 7.40171 7.05512 8.527 5.92983ZM12.2147 21.1161C12.215 21.1163 12.2152 21.1165 12.7699 20.2844L12.2152 21.1165C12.5511 21.3404 12.9887 21.3404 13.3246 21.1165L12.7699 20.2844C13.3246 21.1165 13.3249 21.1163 13.3251 21.1161L13.3258 21.1157L13.3276 21.1144L13.3332 21.1107L13.3519 21.0981C13.3675 21.0874 13.3897 21.0723 13.4179 21.0527C13.4743 21.0137 13.5549 20.9571 13.6562 20.8839C13.8588 20.7376 14.1448 20.5246 14.4866 20.2524C15.1687 19.7093 16.0807 18.9243 16.9961 17.9581C18.7859 16.0688 20.7703 13.2971 20.7703 10.1727C20.7703 8.05091 19.9274 6.01598 18.427 4.51562C16.9267 3.01526 14.8917 2.17236 12.7699 2.17236C10.6481 2.17236 8.61315 3.01526 7.11279 4.51562C5.61243 6.01598 4.76953 8.05091 4.76953 10.1727C4.76953 13.2971 6.75389 16.0688 8.54377 17.9581C9.45916 18.9243 10.3711 19.7093 11.0532 20.2524C11.395 20.5246 11.6811 20.7376 11.8836 20.8839C11.985 20.9571 12.0655 21.0137 12.1219 21.0527C12.1501 21.0723 12.1723 21.0874 12.188 21.0981L12.2066 21.1107L12.2122 21.1144L12.214 21.1157L12.2147 21.1161ZM11.4365 10.1728C11.4365 9.4363 12.0335 8.83929 12.77 8.83929C13.5064 8.83929 14.1034 9.4363 14.1034 10.1728C14.1034 10.9092 13.5064 11.5062 12.77 11.5062C12.0335 11.5062 11.4365 10.9092 11.4365 10.1728ZM12.77 6.83929C10.929 6.83929 9.43652 8.33173 9.43652 10.1728C9.43652 12.0138 10.929 13.5062 12.77 13.5062C14.611 13.5062 16.1034 12.0138 16.1034 10.1728C16.1034 8.33173 14.611 6.83929 12.77 6.83929Z" fill="#73787D"/>
</svg>
